<svg xmlns="http://www.w3.org/2000/svg" viewBox="0 0 200 200">
  <g stroke="#2C3560" stroke-linecap="round" stroke-linejoin="round" fill="none">
    <!-- Main body panel -->
    <path d="M68 80 L68 155 Q68 166 80 166 L120 166 Q132 166 132 155 L132 80 Z" stroke-width="2"/>
    <!-- Top shoulder straps left -->
    <path d="M68 80 Q64 60 50 48 Q44 42 40 36" stroke-width="2"/>
    <!-- Top shoulder straps right -->
    <path d="M132 80 Q136 60 150 48 Q156 42 160 36" stroke-width="2"/>
    <!-- Shoulder strap width left -->
    <path d="M40 36 Q36 30 44 28 Q52 26 56 32 L68 80" stroke-width="2"/>
    <!-- Shoulder strap width right -->
    <path d="M160 36 Q164 30 156 28 Q148 26 144 32 L132 80" stroke-width="2"/>
    <!-- Waist buckle base -->
    <rect x="58" y="152" width="84" height="18" rx="6" stroke-width="2"/>
    <!-- Buckle clasp left -->
    <rect x="62" y="155" width="18" height="12" rx="3" stroke-width="1.6"/>
    <!-- Buckle clasp right -->
    <rect x="120" y="155" width="18" height="12" rx="3" stroke-width="1.6"/>
    <!-- Center seam -->
    <line x1="100" y1="80" x2="100" y2="152" stroke-width="1.4" stroke-dasharray="4,3"/>
    <!-- Chest strap -->
    <rect x="68" y="104" width="64" height="10" rx="4" stroke-width="1.6"/>
    <!-- Chest buckle -->
    <rect x="90" y="105" width="20" height="8" rx="3" stroke-width="1.4"/>
    <!-- Pocket on front -->
    <path d="M78 130 L78 150 Q78 154 82 154 L118 154 Q122 154 122 150 L122 130 Q110 126 100 126 Q90 126 78 130 Z" stroke-width="1.5"/>
    <!-- Pocket curve top -->
    <path d="M78 130 Q90 122 100 122 Q110 122 122 130" stroke-width="1.5"/>
  </g>
</svg>
