<svg xmlns="http://www.w3.org/2000/svg" viewBox="0 0 200 200">
  <g stroke="#2C3560" stroke-linecap="round" stroke-linejoin="round" fill="none">
    <!-- Mobile arm -->
    <line x1="100" y1="28" x2="100" y2="48" stroke-width="1.8"/>
    <line x1="72" y1="42" x2="128" y2="42" stroke-width="1.8"/>
    <!-- Mobile strings -->
    <line x1="80" y1="42" x2="80" y2="56" stroke-width="1.4"/>
    <line x1="100" y1="42" x2="100" y2="52" stroke-width="1.4"/>
    <line x1="120" y1="42" x2="120" y2="58" stroke-width="1.4"/>
    <!-- Stars/clouds on mobile -->
    <path d="M77 56 L79 62 L73 58 L81 58 L75 62 Z" stroke-width="1.4"/>
    <path d="M95 52 Q95 48 100 48 Q105 48 105 52 Q105 56 95 56 Z" stroke-width="1.3"/>
    <path d="M115 58 L118 65 L111 60 L121 60 L114 65 Z" stroke-width="1.4"/>
    <!-- Oval crib frame -->
    <ellipse cx="100" cy="128" rx="64" ry="40" stroke-width="2.2"/>
    <!-- Vertical slats -->
    <line x1="72" y1="96" x2="72" y2="162" stroke-width="1.6"/>
    <line x1="84" y1="92" x2="84" y2="164" stroke-width="1.6"/>
    <line x1="100" y1="90" x2="100" y2="166" stroke-width="1.6"/>
    <line x1="116" y1="92" x2="116" y2="164" stroke-width="1.6"/>
    <line x1="128" y1="96" x2="128" y2="162" stroke-width="1.6"/>
    <!-- Mattress panel -->
    <path d="M60 128 Q60 120 100 118 Q140 120 140 128 Q140 136 100 138 Q60 136 60 128 Z" stroke-width="1.5"/>
    <!-- Legs -->
    <line x1="48" y1="155" x2="44" y2="178" stroke-width="2"/>
    <line x1="152" y1="155" x2="156" y2="178" stroke-width="2"/>
  </g>
</svg>
