<svg xmlns="http://www.w3.org/2000/svg" viewBox="0 0 200 200" stroke="#2C3560" fill="none" stroke-linecap="round" stroke-linejoin="round">
  <!-- Jar body -->
  <path d="M 56 108 L 56 168 C 56 176 74 182 100 182 C 126 182 144 176 144 168 L 144 108 Z" stroke-width="2.4"/>
  <!-- Jar shoulder taper -->
  <path d="M 56 108 C 56 94 74 86 100 86 C 126 86 144 94 144 108" stroke-width="2.4"/>
  <!-- Jar neck narrow band -->
  <path d="M 70 86 C 70 78 80 72 100 72 C 120 72 130 78 130 86" stroke-width="2"/>
  <!-- Jar neck upper edge -->
  <path d="M 72 80 Q 100 74 128 80" stroke-width="1.3"/>

  <!-- Lid screw body -->
  <rect x="66" y="56" width="68" height="18" rx="8" stroke-width="2.2"/>
  <!-- Lid top dome -->
  <path d="M 66 62 C 70 56 82 52 100 52 C 118 52 130 56 134 62" stroke-width="1.6"/>
  <!-- Lid pop-up safety button -->
  <ellipse cx="100" cy="54" rx="8" ry="4" stroke-width="1.4"/>
  <!-- Lid underside seal ring -->
  <path d="M 68 74 C 76 78 86 80 100 80 C 114 80 124 78 132 74" stroke-width="1.3"/>

  <!-- Label rectangle on jar body -->
  <rect x="62" y="110" width="76" height="60" rx="7" stroke-width="1.8"/>

  <!-- Apple shape on label -->
  <path d="M 100 120 C 90 118 82 127 82 136 C 82 146 89 154 100 153 C 111 154 118 146 118 136 C 118 127 110 118 100 120 Z" stroke-width="1.6"/>
  <!-- Apple stem -->
  <path d="M 100 120 C 101 114 106 110 110 112" stroke-width="1.4"/>
  <!-- Apple leaf -->
  <path d="M 104 113 C 112 107 118 112 114 118 C 110 120 104 117 104 113 Z" stroke-width="1.3"/>
  <!-- Apple left highlight curve -->
  <path d="M 87 128 C 85 132 84 138 86 143" stroke-width="1.1"/>
  <!-- Apple top indent -->
  <path d="M 95 122 C 97 119 103 119 105 122" stroke-width="1.1"/>

  <!-- Label brand name line -->
  <line x1="68" y1="158" x2="132" y2="158" stroke-width="1.5"/>
  <!-- Label sub line -->
  <line x1="74" y1="164" x2="126" y2="164" stroke-width="1.2"/>

  <!-- Jar glass shine left -->
  <path d="M 60 100 C 60 112 59 126 59 138" stroke-width="1.3"/>
  <path d="M 64 100 C 64 110 63 122 63 132" stroke-width="1.1"/>

  <!-- Spoon leaning against jar right side -->
  <ellipse cx="152" cy="68" rx="11" ry="13" transform="rotate(-25 152 68)" stroke-width="1.8"/>
  <!-- Spoon bowl highlight -->
  <path d="M 147 62 C 149 59 155 59 158 62" stroke-width="1.1"/>
  <!-- Spoon handle -->
  <path d="M 158 76 C 162 88 156 168 148 172" stroke-width="1.8"/>
  <!-- Spoon handle end -->
  <path d="M 148 172 C 146 176 152 178 154 174" stroke-width="1.4"/>
</svg>
