<svg xmlns="http://www.w3.org/2000/svg" viewBox="0 0 200 200">
  <g stroke="#2C3560" fill="none" stroke-linecap="round" stroke-linejoin="round">
    <!-- Handle arch left strut -->
    <path d="M64 108 C60 80 66 56 80 42" stroke-width="2"/>
    <!-- Handle arch right strut -->
    <path d="M136 108 C140 80 134 56 120 42" stroke-width="2"/>
    <!-- Handle arch top (with grip) -->
    <path d="M80 42 C86 36 94 32 100 32 C106 32 114 36 120 42" stroke-width="2.2"/>
    <!-- Grip texture lines on handle -->
    <line x1="88" y1="36" x2="92" y2="34" stroke-width="1.2"/>
    <line x1="96" y1="33" x2="100" y2="32" stroke-width="1.2"/>
    <line x1="104" y1="33" x2="108" y2="34" stroke-width="1.2"/>
    <line x1="112" y1="36" x2="116" y2="38" stroke-width="1.2"/>
    <!-- Seat shell outer -->
    <path d="M58 150 C56 124 62 96 80 82 L120 82 C138 96 144 124 142 150 C140 165 124 172 100 172 C76 172 60 165 58 150 Z" stroke-width="2.2"/>
    <!-- Seat shell back angled -->
    <path d="M80 82 C76 68 76 54 80 44" stroke-width="1.8"/>
    <path d="M120 82 C124 68 124 54 120 44" stroke-width="1.8"/>
    <!-- Seat shell inner padding shape -->
    <path d="M68 148 C68 126 76 106 100 102 C124 106 132 126 132 148" stroke-width="1.6"/>
    <!-- Side wings left -->
    <path d="M58 150 L46 156 L48 118 L60 110" stroke-width="1.8"/>
    <!-- Side wings right -->
    <path d="M142 150 L154 156 L152 118 L140 110" stroke-width="1.8"/>
    <!-- Newborn insert -->
    <path d="M74 140 C76 124 86 114 100 112 C114 114 124 124 126 140" stroke-width="1.4"/>
    <!-- Harness left -->
    <path d="M82 96 L86 130" stroke-width="1.8"/>
    <!-- Harness right -->
    <path d="M118 96 L114 130" stroke-width="1.8"/>
    <!-- Harness waist clip -->
    <path d="M86 130 Q100 136 114 130" stroke-width="1.8"/>
    <!-- Crotch buckle -->
    <rect x="92" y="130" width="16" height="10" rx="4" stroke-width="1.6"/>
    <!-- Rocker base base -->
    <path d="M36 182 C56 162 76 154 100 154 C124 154 144 162 164 182" stroke-width="2.4"/>
    <!-- Leg left -->
    <line x1="68" y1="155" x2="48" y2="180" stroke-width="2.2"/>
    <!-- Leg right -->
    <line x1="132" y1="155" x2="152" y2="180" stroke-width="2.2"/>
    <!-- Control panel side -->
    <rect x="144" y="124" width="14" height="30" rx="5" stroke-width="1.6"/>
    <circle cx="151" cy="132" r="3.5" stroke-width="1.4"/>
    <circle cx="151" cy="143" r="3.5" stroke-width="1.4"/>
  </g>
</svg>
