<svg xmlns="http://www.w3.org/2000/svg" viewBox="0 0 200 200" stroke="#2C3560" fill="none" stroke-linecap="round" stroke-linejoin="round">
  <!-- Nipple bulb - teardrop shape protruding from centre -->
  <path d="M 100 38 C 116 38 128 52 128 68 C 128 84 116 96 100 96 C 84 96 72 84 72 68 C 72 52 84 38 100 38 Z" stroke-width="2.4"/>
  <!-- Nipple tip point -->
  <path d="M 93 40 C 93 30 107 30 107 40" stroke-width="2.2"/>
  <!-- Nipple inner ring detail -->
  <ellipse cx="100" cy="70" rx="10" ry="12" stroke-width="1.3"/>

  <!-- Shield plate outer boundary - wide butterfly shape -->
  <path d="M 100 90 C 100 84 88 80 76 80 C 52 80 36 90 36 106 C 36 122 50 132 68 132 C 80 132 92 126 100 116 C 108 126 120 132 132 132 C 150 132 164 122 164 106 C 164 90 148 80 124 80 C 112 80 100 84 100 90 Z" stroke-width="2.4"/>

  <!-- Shield left wing heart 1 top -->
  <path d="M 66 94 C 66 90 70 88 74 90 C 78 88 82 90 82 94 C 82 100 74 106 74 106 C 74 106 66 100 66 94 Z" stroke-width="1.5"/>
  <!-- Shield left wing heart 2 bottom -->
  <path d="M 52 110 C 52 106 56 104 60 106 C 64 104 68 106 68 110 C 68 116 60 122 60 122 C 60 122 52 116 52 110 Z" stroke-width="1.5"/>

  <!-- Shield right wing heart 1 top -->
  <path d="M 118 94 C 118 90 122 88 126 90 C 130 88 134 90 134 94 C 134 100 126 106 126 106 C 126 106 118 100 118 94 Z" stroke-width="1.5"/>
  <!-- Shield right wing heart 2 bottom -->
  <path d="M 132 110 C 132 106 136 104 140 106 C 144 104 148 106 148 110 C 148 116 140 122 140 122 C 140 122 132 116 132 110 Z" stroke-width="1.5"/>

  <!-- Shield decorative edge curves left -->
  <path d="M 38 100 C 36 106 38 114 42 118" stroke-width="1.2"/>
  <!-- Shield decorative edge curves right -->
  <path d="M 162 100 C 164 106 162 114 158 118" stroke-width="1.2"/>

  <!-- Shield wing venting holes/outline suggestion -->
  <path d="M 60 88 C 64 85 70 84 74 86" stroke-width="1.1"/>
  <path d="M 126 88 C 130 85 136 84 140 86" stroke-width="1.1"/>

  <!-- Connector stem from shield to ring -->
  <rect x="92" y="130" width="16" height="14" rx="6" stroke-width="1.8"/>

  <!-- Ring handle -->
  <circle cx="100" cy="162" r="20" stroke-width="2.4"/>
  <!-- Ring inner circle -->
  <circle cx="100" cy="162" r="13" stroke-width="1.2"/>
  <!-- Ring grab area detail -->
  <path d="M 86 154 C 90 148 96 146 100 146" stroke-width="1.1"/>
</svg>
