<svg xmlns="http://www.w3.org/2000/svg" viewBox="0 0 200 200">
  <g stroke="#2C3560" fill="none" stroke-linecap="round" stroke-linejoin="round">
    <!-- Left shoulder strap -->
    <path d="M72 76 C68 60 58 46 44 34" stroke-width="2.2"/>
    <path d="M44 34 C40 30 36 28 34 30 C32 32 34 38 40 44 L72 76" stroke-width="2"/>
    <!-- Right shoulder strap -->
    <path d="M128 76 C132 60 142 46 156 34" stroke-width="2.2"/>
    <path d="M156 34 C160 30 164 28 166 30 C168 32 166 38 160 44 L128 76" stroke-width="2"/>
    <!-- Chest clip connecting straps -->
    <path d="M56 52 L72 76" stroke-width="1.6"/>
    <path d="M144 52 L128 76" stroke-width="1.6"/>
    <rect x="72" y="50" width="56" height="10" rx="4" stroke-width="1.6"/>
    <!-- Chest buckle -->
    <rect x="88" y="51" width="24" height="8" rx="3" stroke-width="1.5"/>
    <line x1="100" y1="51" x2="100" y2="59" stroke-width="1.2"/>
    <!-- Main body panel -->
    <path d="M72 76 L68 170 Q68 178 100 178 Q132 178 132 170 L128 76 Z" stroke-width="2.2"/>
    <!-- Panel seam centre -->
    <line x1="100" y1="76" x2="100" y2="148" stroke-width="1.2" stroke-dasharray="5,3"/>
    <!-- Panel seam stitching lines -->
    <path d="M76 90 L80 90" stroke-width="1"/>
    <path d="M76 96 L80 96" stroke-width="1"/>
    <path d="M120 90 L124 90" stroke-width="1"/>
    <path d="M120 96 L124 96" stroke-width="1"/>
    <!-- Front pocket -->
    <path d="M82 128 C80 120 82 110 100 108 C118 110 120 120 118 128 L118 158 Q118 164 100 164 Q82 164 82 158 Z" stroke-width="1.6"/>
    <!-- Pocket curve stitch -->
    <path d="M84 128 C84 120 90 115 100 114 C110 115 116 120 116 128" stroke-width="1.2"/>
    <!-- Waist belt -->
    <rect x="60" y="158" width="80" height="18" rx="8" stroke-width="2"/>
    <!-- Left buckle -->
    <rect x="64" y="161" width="24" height="12" rx="4" stroke-width="1.6"/>
    <!-- Right buckle -->
    <rect x="112" y="161" width="24" height="12" rx="4" stroke-width="1.6"/>
    <!-- Buckle prong -->
    <line x1="76" y1="161" x2="76" y2="173" stroke-width="1.3"/>
    <line x1="124" y1="161" x2="124" y2="173" stroke-width="1.3"/>
  </g>
</svg>
