<svg xmlns="http://www.w3.org/2000/svg" viewBox="0 0 200 200">
  <g stroke="#2C3560" stroke-linecap="round" stroke-linejoin="round" fill="none">
    <!-- Base rocker/stand -->
    <path d="M40 170 Q55 148 80 142 L120 142 Q145 148 160 170" stroke-width="2.2"/>
    <!-- Stand legs -->
    <line x1="78" y1="142" x2="60" y2="170" stroke-width="2"/>
    <line x1="122" y1="142" x2="140" y2="170" stroke-width="2"/>
    <!-- Seat shell back -->
    <path d="M62 140 Q58 115 60 88 Q62 68 100 62 Q138 68 140 88 Q142 115 138 140 Z" stroke-width="2"/>
    <!-- Headrest top -->
    <path d="M60 88 Q62 68 100 62 Q138 68 140 88" stroke-width="1.8"/>
    <!-- Side wings left -->
    <path d="M62 140 L50 148 L50 120 L62 110" stroke-width="1.8"/>
    <!-- Side wings right -->
    <path d="M138 140 L150 148 L150 120 L138 110" stroke-width="1.8"/>
    <!-- Handle arch -->
    <path d="M62 100 Q58 68 72 54" stroke-width="1.8"/>
    <path d="M138 100 Q142 68 128 54" stroke-width="1.8"/>
    <path d="M72 54 Q86 44 100 44 Q114 44 128 54" stroke-width="1.8"/>
    <!-- Seat padding lines -->
    <path d="M74 130 Q100 126 126 130" stroke-width="1.4"/>
    <path d="M70 115 Q100 110 130 115" stroke-width="1.4"/>
    <!-- Harness straps -->
    <path d="M80 88 L88 120" stroke-width="1.6"/>
    <path d="M120 88 L112 120" stroke-width="1.6"/>
    <path d="M88 120 Q100 124 112 120" stroke-width="1.6"/>
    <!-- Crotch buckle -->
    <rect x="94" y="120" width="12" height="8" rx="3" stroke-width="1.5"/>
    <!-- Control buttons -->
    <circle cx="155" cy="130" r="4" stroke-width="1.4"/>
    <circle cx="155" cy="142" r="4" stroke-width="1.4"/>
  </g>
</svg>
