<svg xmlns="http://www.w3.org/2000/svg" viewBox="0 0 200 200">
  <g stroke="#2C3560" stroke-linecap="round" stroke-linejoin="round" fill="none">
    <!-- Jar body -->
    <path d="M60 90 L60 158 Q60 170 100 170 Q140 170 140 158 L140 90 Z" stroke-width="2"/>
    <!-- Jar shoulder curve -->
    <path d="M60 90 Q60 78 100 76 Q140 78 140 90" stroke-width="2"/>
    <!-- Lid top -->
    <rect x="72" y="62" width="56" height="14" rx="6" stroke-width="2"/>
    <!-- Lid underside -->
    <path d="M72 76 Q100 80 128 76" stroke-width="1.5"/>
    <!-- Label rectangle -->
    <rect x="66" y="100" width="68" height="52" rx="6" stroke-width="1.6"/>
    <!-- Apple / fruit on label -->
    <path d="M100 108 Q90 108 86 118 Q84 128 90 133 Q96 138 100 136 Q104 138 110 133 Q116 128 114 118 Q110 108 100 108 Z" stroke-width="1.5"/>
    <!-- Apple stem -->
    <path d="M100 108 Q102 102 106 100" stroke-width="1.4"/>
    <!-- Apple leaf -->
    <path d="M105 102 Q114 96 118 102 Q114 108 106 104 Z" stroke-width="1.3"/>
    <!-- Spoon -->
    <path d="M144 58 Q150 48 156 52 Q162 56 158 66 Q154 74 148 78 L136 142" stroke-width="1.8"/>
    <ellipse cx="153" cy="54" rx="7" ry="9" transform="rotate(-30 153 54)" stroke-width="1.8"/>
    <!-- Shine marks on jar -->
    <path d="M68 96 Q68 104 70 112" stroke-width="1.2"/>
    <path d="M74 96 Q74 100 75 104" stroke-width="1.2"/>
  </g>
</svg>
