<svg xmlns="http://www.w3.org/2000/svg" viewBox="0 0 200 200">
  <g stroke="#2C3560" fill="none" stroke-linecap="round" stroke-linejoin="round">
    <!-- Baby head -->
    <circle cx="100" cy="50" r="26" stroke-width="2.2"/>
    <!-- Hair wisps -->
    <path d="M88 26 C86 20 90 16 94 18" stroke-width="1.4"/>
    <path d="M100 24 C100 17 104 14 106 18" stroke-width="1.4"/>
    <path d="M112 26 C114 20 110 16 108 20" stroke-width="1.2"/>
    <!-- Eyes -->
    <ellipse cx="91" cy="47" rx="3" ry="3.5" stroke-width="1.4"/>
    <ellipse cx="109" cy="47" rx="3" ry="3.5" stroke-width="1.4"/>
    <!-- Pupils -->
    <circle cx="91" cy="48" r="1.5" fill="#2C3560"/>
    <circle cx="109" cy="48" r="1.5" fill="#2C3560"/>
    <!-- Nose -->
    <path d="M97 54 C98 57 102 57 103 54" stroke-width="1.2"/>
    <!-- Smile -->
    <path d="M93 60 C96 64 104 64 107 60" stroke-width="1.4"/>
    <!-- Ear left -->
    <path d="M74 46 C70 42 70 54 74 56" stroke-width="1.6"/>
    <!-- Ear right -->
    <path d="M126 46 C130 42 130 54 126 56" stroke-width="1.6"/>
    <!-- Swaddle outer body -->
    <path d="M58 82 C52 94 50 110 52 128 C54 150 64 166 80 173 L100 178 L120 173 C136 166 146 150 148 128 C150 110 148 94 142 82 Z" stroke-width="2.4"/>
    <!-- Left swaddle wing fold -->
    <path d="M58 82 C62 76 74 72 88 74 C76 82 68 94 66 108" stroke-width="2"/>
    <!-- Right swaddle wing fold -->
    <path d="M142 82 C138 76 126 72 112 74 C124 82 132 94 134 108" stroke-width="2"/>
    <!-- Cross-fold crease -->
    <path d="M66 108 C78 98 92 96 100 98 C108 96 122 98 134 108" stroke-width="1.6"/>
    <!-- Left body crease -->
    <path d="M58 118 C64 112 70 110 76 112" stroke-width="1.4"/>
    <!-- Right body crease -->
    <path d="M142 118 C136 112 130 110 124 112" stroke-width="1.4"/>
    <!-- Bottom tuck gather -->
    <path d="M74 168 C84 174 92 176 100 176 C108 176 116 174 126 168" stroke-width="1.6"/>
    <path d="M78 164 C86 169 93 172 100 172 C107 172 114 169 122 164" stroke-width="1.2"/>
    <!-- Blanket texture star left -->
    <path d="M62 138 L64 134 L66 138 L62 136 L66 136 Z" stroke-width="1"/>
    <!-- Blanket texture star right -->
    <path d="M134 138 L136 134 L138 138 L134 136 L138 136 Z" stroke-width="1"/>
    <!-- Tiny fist peeking left -->
    <path d="M54 90 C46 88 42 96 46 104 C49 110 56 112 60 106" stroke-width="1.8"/>
    <path d="M46 100 C44 106 46 112 50 112" stroke-width="1.3"/>
    <!-- Blanket dot pattern -->
    <circle cx="66" cy="130" r="1.5" stroke-width="1"/>
    <circle cx="70" cy="144" r="1.5" stroke-width="1"/>
    <circle cx="134" cy="130" r="1.5" stroke-width="1"/>
    <circle cx="130" cy="144" r="1.5" stroke-width="1"/>
  </g>
</svg>
