<svg xmlns="http://www.w3.org/2000/svg" viewBox="0 0 200 200" stroke="#2C3560" fill="none" stroke-linecap="round" stroke-linejoin="round">
  <!-- Mobile pole base knob -->
  <circle cx="152" cy="56" r="5" stroke-width="1.8"/>
  <!-- Mobile vertical pole -->
  <line x1="152" y1="56" x2="152" y2="76" stroke-width="2"/>
  <!-- Mobile horizontal arm -->
  <line x1="110" y1="72" x2="168" y2="72" stroke-width="2"/>
  <!-- String 1 left cloud -->
  <line x1="118" y1="72" x2="118" y2="86" stroke-width="1.3"/>
  <!-- Cloud left -->
  <path d="M 108 90 C 107 86 109 83 113 84 C 113 81 116 78 120 79 C 123 78 126 81 126 84 C 130 83 132 86 131 90 C 131 94 128 96 124 96 L 114 96 C 110 96 107 93 108 90 Z" stroke-width="1.5"/>
  <!-- String 2 star centre -->
  <line x1="140" y1="72" x2="140" y2="80" stroke-width="1.3"/>
  <!-- Star -->
  <path d="M 140 80 L 142 87 L 149 87 L 143 91 L 146 98 L 140 94 L 134 98 L 137 91 L 131 87 L 138 87 Z" stroke-width="1.4"/>
  <!-- String 3 small cloud right -->
  <line x1="160" y1="72" x2="160" y2="84" stroke-width="1.3"/>
  <!-- Small cloud right -->
  <path d="M 152 88 C 151 85 153 83 156 83 C 157 81 159 80 162 81 C 164 80 166 81 167 83 C 170 83 171 85 170 88 C 170 91 168 92 165 92 L 155 92 C 152 92 150 91 152 88 Z" stroke-width="1.4"/>

  <!-- Crib outer oval rail -->
  <ellipse cx="100" cy="148" rx="76" ry="38" stroke-width="2.6"/>
  <!-- Crib inner oval top rim -->
  <path d="M 28 138 C 28 124 62 114 100 114 C 138 114 172 124 172 138" stroke-width="1.8"/>

  <!-- Vertical slats evenly spaced around oval -->
  <path d="M 36 148 L 36 182" stroke-width="1.3"/>
  <path d="M 50 136 L 48 180" stroke-width="1.3"/>
  <path d="M 66 128 L 64 176" stroke-width="1.3"/>
  <path d="M 82 122 L 81 172" stroke-width="1.3"/>
  <path d="M 100 120 L 100 170" stroke-width="1.3"/>
  <path d="M 118 122 L 119 172" stroke-width="1.3"/>
  <path d="M 134 128 L 136 176" stroke-width="1.3"/>
  <path d="M 150 136 L 152 180" stroke-width="1.3"/>
  <path d="M 164 148 L 164 182" stroke-width="1.3"/>

  <!-- Mattress hatching suggestion -->
  <path d="M 54 142 L 62 136 L 70 142 L 78 136 L 86 142 L 94 136 L 102 142 L 110 136 L 118 142 L 126 136 L 134 142 L 142 136" stroke-width="1.1"/>

  <!-- Left leg assembly -->
  <line x1="38" y1="174" x2="30" y2="196" stroke-width="2.2"/>
  <line x1="54" y1="174" x2="46" y2="196" stroke-width="2.2"/>
  <line x1="30" y1="190" x2="50" y2="190" stroke-width="1.6"/>

  <!-- Right leg assembly -->
  <line x1="146" y1="174" x2="154" y2="196" stroke-width="2.2"/>
  <line x1="162" y1="174" x2="170" y2="196" stroke-width="2.2"/>
  <line x1="150" y1="190" x2="170" y2="190" stroke-width="1.6"/>
</svg>
