<svg xmlns="http://www.w3.org/2000/svg" viewBox="0 0 200 200">
  <g stroke="#2C3560" stroke-linecap="round" stroke-linejoin="round" fill="none">
    <!-- Swaddle body -->
    <path d="M72 60 Q62 72 66 90 Q68 108 70 130 Q74 162 100 166 Q126 162 130 130 Q132 108 134 90 Q138 72 128 60 Q114 48 100 46 Q86 48 72 60 Z" stroke-width="2"/>
    <!-- Left wing -->
    <path d="M72 68 Q58 72 50 84 Q50 100 66 96 Q70 88 72 78" stroke-width="1.8"/>
    <!-- Right wing -->
    <path d="M128 68 Q142 72 150 84 Q150 100 134 96 Q130 88 128 78" stroke-width="1.8"/>
    <!-- Wrap fold left -->
    <path d="M70 92 Q76 112 78 134" stroke-width="1.5"/>
    <!-- Wrap fold right -->
    <path d="M130 92 Q124 112 122 134" stroke-width="1.5"/>
    <!-- Swaddle tuck at bottom -->
    <path d="M80 158 Q90 153 100 153 Q110 153 120 158" stroke-width="1.5"/>
    <!-- Top opening/fold edge -->
    <path d="M78 56 Q90 52 100 51 Q110 52 122 56" stroke-width="1.5"/>
    <!-- Small star doodle -->
    <path d="M155 68 L157 74 L151 70 L161 70 L155 74 Z" stroke-width="1.3"/>
    <path d="M40 128 L42 134 L36 130 L46 130 L40 134 Z" stroke-width="1.3"/>
  </g>
</svg>
