<svg xmlns="http://www.w3.org/2000/svg" viewBox="0 0 200 200" stroke="#2C3560" fill="none" stroke-linecap="round" stroke-linejoin="round">
  <!-- Handle arch — sweeping from back-left up and over to front-right -->
  <path d="M 50 152 C 46 112 52 70 72 42 C 88 20 122 14 152 28 C 172 40 178 72 170 108 L 162 152" stroke-width="2.8"/>
  <!-- Handle grip bumps -->
  <line x1="98" y1="18" x2="102" y2="16" stroke-width="1.3"/>
  <line x1="112" y1="14" x2="116" y2="14" stroke-width="1.3"/>
  <line x1="126" y1="17" x2="130" y2="19" stroke-width="1.3"/>
  <line x1="140" y1="24" x2="144" y2="27" stroke-width="1.3"/>
  <!-- Seat shell outer — compact bucket shape -->
  <path d="M 50 108 C 48 80 62 58 96 52 C 128 46 158 64 162 92 L 162 156 C 160 172 140 182 106 182 L 78 182 C 58 182 50 170 50 156 Z" stroke-width="2.6"/>
  <!-- Inner seat padding -->
  <path d="M 64 154 C 64 128 76 108 106 102 C 134 108 148 128 148 154" stroke-width="1.8"/>
  <!-- Newborn insert inner -->
  <path d="M 74 152 C 76 132 86 118 106 114 C 126 118 138 132 140 152" stroke-width="1.4"/>
  <!-- Side wings left -->
  <path d="M 50 152 L 34 158 L 36 114 L 52 108" stroke-width="2"/>
  <!-- Side wings right -->
  <path d="M 162 152 L 178 158 L 176 110 L 160 104" stroke-width="2"/>
  <!-- Harness left strap -->
  <path d="M 80 68 L 84 142" stroke-width="2"/>
  <!-- Harness right strap -->
  <path d="M 130 68 L 126 142" stroke-width="2"/>
  <!-- Chest clip -->
  <path d="M 84 114 Q 106 120 126 114" stroke-width="1.8"/>
  <!-- Crotch buckle -->
  <rect x="94" y="142" width="24" height="14" rx="5" stroke-width="1.8"/>
  <!-- Rocker base curve -->
  <path d="M 26 186 C 50 168 76 158 106 156 C 138 158 162 168 182 186" stroke-width="2.6"/>
  <!-- Rocker legs -->
  <line x1="64" y1="160" x2="42" y2="184" stroke-width="2.4"/>
  <line x1="150" y1="160" x2="170" y2="184" stroke-width="2.4"/>
  <!-- Level indicator panel -->
  <rect x="162" y="126" width="16" height="34" rx="6" stroke-width="1.6"/>
  <circle cx="170" cy="136" r="4.5" stroke-width="1.4"/>
  <circle cx="170" cy="150" r="4.5" stroke-width="1.4"/>
</svg>
