<svg xmlns="http://www.w3.org/2000/svg" viewBox="0 0 200 200">
  <g stroke="#2C3560" stroke-linecap="round" stroke-linejoin="round" fill="none">
    <!-- Seat -->
    <path d="M55 110 Q52 90 70 80 L130 80 Q148 90 145 110 Q142 135 120 145 L80 145 Q58 135 55 110 Z" stroke-width="2"/>
    <!-- Back recline -->
    <path d="M70 80 Q62 65 60 50" stroke-width="2"/>
    <path d="M130 80 Q138 65 140 50" stroke-width="2"/>
    <!-- Headrest top -->
    <path d="M60 50 Q70 38 100 36 Q130 38 140 50" stroke-width="2"/>
    <!-- Toy bar arch -->
    <path d="M58 92 Q55 70 65 58" stroke-width="1.8"/>
    <path d="M142 92 Q145 70 135 58" stroke-width="1.8"/>
    <path d="M65 58 Q82 46 100 46 Q118 46 135 58" stroke-width="1.8"/>
    <!-- Hanging elephant left -->
    <line x1="78" y1="58" x2="78" y2="70" stroke-width="1.4"/>
    <ellipse cx="78" cy="75" rx="8" ry="7" stroke-width="1.5"/>
    <path d="M72 74 Q66 76 65 80 Q66 83 70 81" stroke-width="1.3"/>
    <circle cx="80" cy="73" r="1.2" fill="#2C3560"/>
    <!-- Hanging elephant right -->
    <line x1="122" y1="58" x2="122" y2="70" stroke-width="1.4"/>
    <ellipse cx="122" cy="75" rx="8" ry="7" stroke-width="1.5"/>
    <path d="M128 74 Q134 76 135 80 Q134 83 130 81" stroke-width="1.3"/>
    <circle cx="120" cy="73" r="1.2" fill="#2C3560"/>
    <!-- Rocker base -->
    <path d="M36 168 Q68 148 100 146 Q132 148 164 168" stroke-width="2.2"/>
    <!-- Rocker legs -->
    <line x1="65" y1="145" x2="48" y2="168" stroke-width="2"/>
    <line x1="135" y1="145" x2="152" y2="168" stroke-width="2"/>
    <!-- Harness straps -->
    <path d="M80 100 Q88 112 100 115 Q112 112 120 100" stroke-width="1.5"/>
    <line x1="100" y1="115" x2="100" y2="135" stroke-width="1.5"/>
  </g>
</svg>
