<svg xmlns="http://www.w3.org/2000/svg" viewBox="0 0 200 200">
  <g stroke="#2C3560" fill="none" stroke-linecap="round" stroke-linejoin="round">
    <!-- Jar body -->
    <path d="M58 96 L58 162 C58 170 76 176 100 176 C124 176 142 170 142 162 L142 96 Z" stroke-width="2.2"/>
    <!-- Jar shoulder taper -->
    <path d="M58 96 C58 84 76 78 100 78 C124 78 142 84 142 96" stroke-width="2.2"/>
    <!-- Jar neck narrowing -->
    <path d="M74 78 C74 72 82 68 100 68 C118 68 126 72 126 78" stroke-width="1.8"/>
    <!-- Lid body -->
    <rect x="70" y="54" width="60" height="16" rx="7" stroke-width="2"/>
    <!-- Lid top curve -->
    <path d="M70 60 C76 56 86 54 100 54 C114 54 124 56 130 60" stroke-width="1.4"/>
    <!-- Lid underside seal -->
    <path d="M72 70 C80 74 92 76 100 76 C108 76 120 74 128 70" stroke-width="1.2"/>
    <!-- Label rectangle with rounded corners -->
    <rect x="64" y="102" width="72" height="56" rx="7" stroke-width="1.8"/>
    <!-- Apple on label -->
    <path d="M100 112 C90 110 84 118 84 126 C84 135 90 141 100 140 C110 141 116 135 116 126 C116 118 110 110 100 112 Z" stroke-width="1.6"/>
    <!-- Apple stem -->
    <path d="M100 112 C101 107 105 104 108 105" stroke-width="1.4"/>
    <!-- Apple leaf -->
    <path d="M104 107 C110 102 116 106 112 111 C108 113 104 110 104 107 Z" stroke-width="1.3"/>
    <!-- Apple highlight -->
    <path d="M90 120 C88 122 87 126 88 129" stroke-width="1.1"/>
    <!-- Label brand lines below apple -->
    <line x1="78" y1="147" x2="122" y2="147" stroke-width="1.4"/>
    <line x1="82" y1="152" x2="118" y2="152" stroke-width="1.2"/>
    <!-- Jar shine left -->
    <path d="M64 100 C64 110 65 122 66 132" stroke-width="1.2"/>
    <path d="M68 100 C68 108 69 116 70 124" stroke-width="1"/>
    <!-- Spoon beside jar -->
    <path d="M148 60 C154 50 164 48 168 56 C172 64 166 74 158 78 L144 158" stroke-width="1.8"/>
    <ellipse cx="159" cy="56" rx="9" ry="11" transform="rotate(-20 159 56)" stroke-width="1.8"/>
    <!-- Spoon bowl highlight -->
    <path d="M155 52 C157 50 161 50 163 52" stroke-width="1.1"/>
  </g>
</svg>
