<svg xmlns="http://www.w3.org/2000/svg" viewBox="0 0 200 200">
  <g stroke="#2C3560" fill="none" stroke-linecap="round" stroke-linejoin="round">
    <!-- Toy bar arch left -->
    <path d="M58 110 C54 88 56 68 70 54" stroke-width="2"/>
    <!-- Toy bar arch right -->
    <path d="M142 110 C146 88 144 68 130 54" stroke-width="2"/>
    <!-- Arch top bar -->
    <path d="M70 54 C82 44 100 40 118 44 C126 46 130 50 130 54" stroke-width="2"/>
    <!-- Left hanging elephant string -->
    <line x1="82" y1="48" x2="82" y2="64" stroke-width="1.4"/>
    <!-- Left elephant body -->
    <ellipse cx="82" cy="74" rx="12" ry="10" stroke-width="1.8"/>
    <!-- Left elephant head -->
    <circle cx="92" cy="68" r="7" stroke-width="1.6"/>
    <!-- Left elephant trunk -->
    <path d="M96 68 C104 68 107 74 103 78" stroke-width="1.4"/>
    <!-- Left elephant ear -->
    <path d="M86 62 C90 57 96 59 94 65" stroke-width="1.3"/>
    <!-- Left elephant eye -->
    <circle cx="94" cy="67" r="1.2" fill="#2C3560"/>
    <!-- Right hanging elephant string -->
    <line x1="118" y1="48" x2="118" y2="64" stroke-width="1.4"/>
    <!-- Right elephant body -->
    <ellipse cx="118" cy="74" rx="12" ry="10" stroke-width="1.8"/>
    <!-- Right elephant head -->
    <circle cx="108" cy="68" r="7" stroke-width="1.6"/>
    <!-- Right elephant trunk -->
    <path d="M104 68 C96 68 93 74 97 78" stroke-width="1.4"/>
    <!-- Right elephant ear -->
    <path d="M114 62 C110 57 104 59 106 65" stroke-width="1.3"/>
    <!-- Right elephant eye -->
    <circle cx="106" cy="67" r="1.2" fill="#2C3560"/>
    <!-- Seat main shape -->
    <path d="M52 118 C50 98 60 84 80 78 L120 78 C140 84 150 98 148 118 C146 140 130 158 100 160 C70 158 54 140 52 118 Z" stroke-width="2.2"/>
    <!-- Seat back -->
    <path d="M80 78 C76 66 74 52 76 44 L124 44 C126 52 124 66 120 78" stroke-width="2"/>
    <!-- Headrest -->
    <path d="M76 44 C78 36 86 30 100 30 C114 30 122 36 124 44" stroke-width="2"/>
    <!-- Seat padding lines -->
    <path d="M68 118 C80 112 120 112 132 118" stroke-width="1.4"/>
    <path d="M62 130 C76 122 124 122 138 130" stroke-width="1.2"/>
    <!-- Harness centre -->
    <line x1="100" y1="90" x2="100" y2="140" stroke-width="1.4"/>
    <!-- Harness shoulder left -->
    <path d="M80 88 C84 100 90 110 100 118" stroke-width="1.4"/>
    <!-- Harness shoulder right -->
    <path d="M120 88 C116 100 110 110 100 118" stroke-width="1.4"/>
    <!-- Harness waist -->
    <path d="M78 128 Q100 132 122 128" stroke-width="1.4"/>
    <!-- Rocker base -->
    <path d="M30 178 C50 156 76 148 100 148 C124 148 150 156 170 178" stroke-width="2.4"/>
    <!-- Legs -->
    <line x1="68" y1="148" x2="48" y2="176" stroke-width="2"/>
    <line x1="132" y1="148" x2="152" y2="176" stroke-width="2"/>
    <!-- Bounce button -->
    <circle cx="148" cy="118" r="6" stroke-width="1.6"/>
    <circle cx="148" cy="132" r="6" stroke-width="1.6"/>
  </g>
</svg>
